<?xml version="1.0" encoding="UTF-8" standalone="no"?>
<!-- Created with Inkscape (http://www.inkscape.org/) -->

<svg
   xmlns:dc="http://purl.org/dc/elements/1.1/"
   xmlns:cc="http://creativecommons.org/ns#"
   xmlns:rdf="http://www.w3.org/1999/02/22-rdf-syntax-ns#"
   xmlns:svg="http://www.w3.org/2000/svg"
   xmlns="http://www.w3.org/2000/svg"
   xmlns:sodipodi="http://sodipodi.sourceforge.net/DTD/sodipodi-0.dtd"
   xmlns:inkscape="http://www.inkscape.org/namespaces/inkscape"
   version="1.1"
   id="svg61"
   width="500"
   height="500"
   viewBox="0 0 500 500"
   sodipodi:docname="favicon1.png.svg"
   inkscape:version="0.92.5 (2060ec1f9f, 2020-04-08)">
  <metadata
     id="metadata67">
    <rdf:RDF>
      <cc:Work
         rdf:about="">
        <dc:format>image/svg+xml</dc:format>
        <dc:type
           rdf:resource="http://purl.org/dc/dcmitype/StillImage" />
        <dc:title></dc:title>
      </cc:Work>
    </rdf:RDF>
  </metadata>
  <defs
     id="defs65" />
  <sodipodi:namedview
     pagecolor="#ffffff"
     bordercolor="#666666"
     borderopacity="1"
     objecttolerance="10"
     gridtolerance="10"
     guidetolerance="10"
     inkscape:pageopacity="0"
     inkscape:pageshadow="2"
     inkscape:window-width="1920"
     inkscape:window-height="1016"
     id="namedview63"
     showgrid="false"
     inkscape:zoom="0.838"
     inkscape:cx="604.15534"
     inkscape:cy="197.567"
     inkscape:window-x="0"
     inkscape:window-y="27"
     inkscape:window-maximized="1"
     inkscape:current-layer="svg61" />
  <g
     id="g71"
     transform="translate(2.3866361,-21.479713)">
    <path
       style="fill:#b0cefb"
       d="M 82,404.0634 C 64.84503,400.4389 50.485,392.97453 37.781567,381.07856 24.598329,368.73329 15.502121,353.67343 10.855962,336.5 7.6516666,324.65608 7.6348599,302.81201 10.821006,291.06683 20.624317,254.92863 49.095915,228.66686 85.016068,222.63044 L 92.5,221.37276 93.096394,210.93638 C 94.391753,188.26873 102.10695,171.68578 118.65548,156 128.2686,146.88805 136.45614,141.96995 149,137.77259 c 8.96395,-2.99946 10.31818,-3.17684 24,-3.14358 11.68817,0.0284 15.82823,0.43495 21.3494,2.0964 l 6.84941,2.06115 2.15059,-2.614 c 11.59272,-14.0907 22.66549,-23.01143 38.1506,-30.73584 16.25611,-8.109019 27.068,-10.611564 46,-10.647269 15.60916,-0.02944 19.16966,0.486926 33.80363,4.902399 l 8.80363,2.6563 7.94622,-3.874225 c 9.84695,-4.800937 10.76692,-4.270734 7.98575,4.602395 -1.10739,3.53303 -2.01923,6.47431 -2.02633,6.53618 -0.007,0.0619 3.0246,2.3779 6.7371,5.14672 8.53637,6.3665 19.62965,17.86582 25.19594,26.11817 8.98014,13.31361 15.78592,30.99155 17.59675,45.70743 0.78475,6.37732 1.5379,7.37626 5.57909,7.39987 5.51251,0.0322 22.7643,5.19377 31.59842,9.45395 23.04415,11.11285 39.42485,27.37031 50.44085,50.06136 30.742,63.32319 -8.12275,138.84557 -77.69514,150.97798 -7.5692,1.31996 -28.92274,1.51268 -160.8469,1.45166 C 100.24385,405.86378 89.95554,405.74424 82,404.0634 Z"
       id="path85"
       inkscape:connector-curvature="0" />
    <path
       style="fill:#8bb8fc"
       d="m 86.5,403.90425 c -7.203406,-1.05201 -20.111253,-5.19348 -27,-8.66293 C 35.495419,383.15168 18.093823,360.76487 11.303388,333.23731 9.0541019,324.119 9.0826047,303.00154 11.356837,293.63719 20.328816,256.69427 49.111884,229.83254 86.449604,223.55704 L 93.5,222.37205 94.112077,211.93603 C 94.448719,206.19621 95.461695,198.575 96.363134,195 98.51423,186.46901 105.7619,171.94839 111.44774,164.77817 126.58318,145.69135 152.71865,133.95325 177,135.337 c 8.25537,0.47046 11.95574,1.16036 22.57288,4.20851 1.65776,0.47594 3.22695,-0.77075 7.83554,-6.2252 15.5793,-18.43867 36.9259,-31.09756 60.46832,-35.858721 11.61547,-2.349081 36.52042,-1.621067 46.62326,1.362877 3.85,1.137124 8.92,2.636774 11.26666,3.332554 4.09778,1.21499 4.56839,1.11576 11.88928,-2.506708 4.33479,-2.144912 7.99865,-3.395717 8.49445,-2.899917 0.4958,0.495799 0.0231,3.338925 -1.09603,6.591615 -2.24501,6.52522 -2.05055,7.63694 1.727,9.87329 1.49525,0.8852 6.09798,4.4949 10.22828,8.02155 18.1069,15.46054 31.51885,39.83749 35.08185,63.76315 0.61429,4.125 1.52409,8.00102 2.02177,8.61338 0.49767,0.61236 3.48829,1.41217 6.6458,1.77735 7.10768,0.82204 20.64858,4.87345 29.13009,8.71567 16.91081,7.66078 35.88656,24.64528 45.50297,40.72801 10.22311,17.0974 14.82332,33.80075 14.91756,54.16559 0.0664,14.34329 -0.87987,20.66479 -5.01449,33.5 -10.80819,33.55226 -38.48962,59.51946 -73.81867,69.24731 L 401.5,404.49435 247,404.63743 c -84.975,0.0787 -157.2,-0.25124 -160.5,-0.73318 z"
       id="path83"
       inkscape:connector-curvature="0" />
    <path
       style="fill:#5397fd"
       d="M 88.192864,402.9413 C 64.557117,399.82116 41.345313,385.87406 27.425325,366.42838 21.423709,358.04435 15.437113,345.12017 12.867422,335 9.7967969,322.90701 9.8292153,303.86278 12.940619,292.0005 22.103395,257.06727 49.594447,231.15516 84,225.02239 c 3.575,-0.63724 7.448418,-1.34546 8.607595,-1.57381 1.942431,-0.38266 2.152742,-1.25894 2.683705,-11.18189 1.231536,-23.01568 8.77134,-39.60701 24.88829,-54.76669 8.81012,-8.28684 16.16185,-12.84597 26.76496,-16.59811 15.63067,-5.53125 29.74949,-6.06178 47.02731,-1.7671 l 8.47186,2.10581 2.52814,-3.3703 c 4.45333,-5.93681 12.3554,-13.9586 18.52814,-18.80886 19.03125,-14.95391 39.56944,-22.027557 64,-22.042511 13.94083,-0.0085 20.72872,0.942741 32.56908,4.564321 l 8.56908,2.621 8.2844,-4.16531 c 4.55642,-2.290926 8.55292,-3.896796 8.88111,-3.568604 0.32819,0.328192 -0.16837,3.467988 -1.10348,6.977324 -0.9351,3.50933 -1.70019,6.80738 -1.70019,7.32898 0,0.5216 3.0538,3.2192 6.78623,5.99466 22.84498,16.98768 38.49169,43.81389 41.69289,71.48226 0.75288,6.50725 1.45146,7.14017 9.02088,8.17311 28.31686,3.86417 56.19409,21.60298 71.88498,45.74179 6.82237,10.49552 11.00786,20.07443 14.32358,32.78097 3.43762,13.17368 3.63237,34.26342 0.43762,47.39048 -8.48931,34.88211 -31.34137,61.50561 -63.69509,74.20714 -18.76981,7.36872 -5.70876,6.84566 -175.95109,7.04642 -84.15,0.0992 -155.838211,-0.19424 -159.307136,-0.65217 z"
       id="path81"
       inkscape:connector-curvature="0" />
    <path
       style="fill:#52bcc6"
       d="m 131,385 c -2.40751,-2.40751 -2.44663,-2.91734 -0.4433,-5.77749 1.44618,-2.06472 2.32786,-2.22251 12.41822,-2.22251 5.97383,0 11.57331,-0.27314 12.44329,-0.60699 1.41079,-0.54137 1.58345,-5.64921 1.5971,-47.25 0.008,-25.65365 0.37773,-47.214 0.82068,-47.91188 0.62137,-0.97898 6.15806,-1.20745 24.23469,-1 L 205.5,280.5 l 0.25992,47.44711 c 0.19957,36.4322 0.5478,47.62995 1.5,48.23469 1.61617,1.02643 19.86657,1.02477 21.48332,-0.002 0.96788,-0.61466 1.3001,-16.5026 1.5,-71.73469 L 230.5,233.5 l 23.42932,-0.26887 c 18.07663,-0.20745 23.61332,0.021 24.23469,1 0.44295,0.69788 0.81226,32.83323 0.82068,71.41188 0.0138,63.02975 0.17572,70.20457 1.5971,70.75 2.31498,0.88834 19.70426,0.71223 21.16335,-0.21434 0.97714,-0.62051 1.3,-22.30272 1.5,-100.73468 L 303.5,175.5 327.25,175.2319 351,174.9638 v 100.41111 c 0,90.63931 0.15394,100.47018 1.58179,101.0181 0.86998,0.33385 5.95498,0.60699 11.3,0.60699 C 374.17936,377 376,377.6954 376,381.62857 376,387.33188 383.60406,387 252.92857,387 134.33333,387 132.97776,386.97776 131,385 Z M 116.22251,286.4433 C 115.00013,285.58711 114,283.85739 114,282.59947 c 0,-1.5033 6.02491,-9.45185 17.58023,-23.19329 9.66912,-11.4984 18.30513,-21.46868 19.19113,-22.15618 2.65358,-2.05908 4.43095,-1.50343 13.59453,4.25 4.81797,3.025 9.34455,5.5 10.05907,5.5 0.71452,0 12.27371,-13.13359 25.68709,-29.18576 C 226.95548,185.68994 227.58761,185 230.17687,185 c 0.98985,0 6.34687,2.7 11.90447,6 5.5576,3.3 10.4488,6 10.86933,6 0.65629,0 54.07071,-62.98273 57.93226,-68.30986 1.76902,-2.44042 0.60582,-3.23499 -6.02316,-4.11435 -9.29281,-1.23274 -10.16745,-2.7917 -3.60152,-6.41933 11.80666,-6.52311 44.01608,-22.215459 44.53446,-21.697083 0.84675,0.846754 -3.02618,15.233633 -9.51218,35.335083 -4.14839,12.85674 -5.95927,17.2189 -7.05725,17 -0.81247,-0.16198 -2.68379,-3.58774 -4.15936,-7.61442 -1.47532,-4.02598 -3.1009,-7.37904 -3.61239,-7.45125 -0.5115,-0.0722 -10.74552,11.54677 -22.74228,25.81996 C 256.72612,209.49834 257.17166,209 254.4963,209 c -1.3601,0 -7.02004,-2.7 -12.57764,-6 -5.5576,-3.3 -10.26811,-6 -10.4678,-6 -0.19969,0 -10.80244,12.4875 -23.56167,27.75 -26.63585,31.86163 -29.70174,35.25 -31.89512,35.25 -0.88002,0 -5.542,-2.475 -10.35996,-5.5 -4.81797,-3.025 -9.37484,-5.5 -10.12639,-5.5 -0.75155,0 -8.58472,8.49666 -17.40703,18.88148 C 124.68537,283.67275 120.49977,288 118.64072,288 c -0.10764,0 -1.19584,-0.70052 -2.41821,-1.5567 z"
       id="path79"
       inkscape:connector-curvature="0" />
    <path
       style="fill:#2d68a5"
       d="m 131,385 c -2.44806,-2.44806 -2.47925,-3.18826 -0.25,-5.9335 l 1.75,-2.15506 120.35272,0.007 c 89.80132,0.005 120.70743,0.30146 121.75,1.16672 1.86471,1.54757 1.77344,5.39573 -0.17415,7.34332 C 373.01747,386.83967 360.62121,387 252.92857,387 134.33333,387 132.97776,386.97776 131,385 Z M 116.22251,286.4433 C 115.00013,285.58711 114,283.85739 114,282.59947 c 0,-1.5033 6.02491,-9.45185 17.58023,-23.19329 9.66912,-11.4984 18.30513,-21.46868 19.19113,-22.15618 2.65358,-2.05908 4.43095,-1.50343 13.59453,4.25 4.81797,3.025 9.34455,5.5 10.05907,5.5 0.71452,0 12.27371,-13.13359 25.68709,-29.18576 C 226.95548,185.68994 227.58761,185 230.17687,185 c 0.98985,0 6.34687,2.7 11.90447,6 5.5576,3.3 10.4488,6 10.86933,6 0.65629,0 54.07071,-62.98273 57.93226,-68.30986 1.76902,-2.44042 0.60582,-3.23499 -6.02316,-4.11435 C 298.7165,123.76085 297,123.10394 297,121.56782 c 0,-1.17565 25.87052,-15.24938 30.98748,-16.85738 1.38188,-0.43426 5.7433,-2.45348 9.69203,-4.48716 3.94873,-2.033672 7.46775,-3.409357 7.82003,-3.057073 0.35228,0.352285 -0.291,3.656403 -1.42951,7.342493 -1.13852,3.68608 -2.07003,7.38074 -2.07003,8.21035 0,0.82962 -2.54244,9.35222 -5.64988,18.93913 -4.1988,12.95396 -6.02921,17.35511 -7.12684,17.13628 -0.81247,-0.16198 -2.68379,-3.58774 -4.15936,-7.61442 -1.47532,-4.02598 -3.1009,-7.37904 -3.61239,-7.45125 -0.5115,-0.0722 -10.74552,11.54677 -22.74228,25.81996 C 256.72612,209.49834 257.17166,209 254.4963,209 c -1.3601,0 -7.02004,-2.7 -12.57764,-6 -5.5576,-3.3 -10.26811,-6 -10.4678,-6 -0.19969,0 -10.80244,12.4875 -23.56167,27.75 -26.63585,31.86163 -29.70174,35.25 -31.89512,35.25 -0.88002,0 -5.542,-2.475 -10.35996,-5.5 -4.81797,-3.025 -9.37484,-5.5 -10.12639,-5.5 -0.75155,0 -8.58472,8.49666 -17.40703,18.88148 C 124.68537,283.67275 120.49977,288 118.64072,288 c -0.10764,0 -1.19584,-0.70052 -2.41821,-1.5567 z"
       id="path77"
       inkscape:connector-curvature="0" />
    <path
       style="fill:#14486a"
       d="m 132.75,384.9199 c -2.02114,-1.17721 -2.29058,-3.97932 -0.55,-5.7199 1.74254,-1.74254 239.85746,-1.74254 241.6,0 1.62976,1.62976 1.50759,3.34956 -0.37143,5.22857 -1.41126,1.41126 -13.66759,1.56833 -120.25,1.54102 -78.7496,-0.0202 -119.26735,-0.37334 -120.42857,-1.04969 z M 116.23832,284.83832 C 115.55724,284.15724 115,283.03692 115,282.34871 c 0,-1.45526 32.92322,-40.91369 36.52522,-43.77542 l 2.42511,-1.92671 10.08031,6.17671 c 5.54418,3.39719 10.43445,6.17671 10.86728,6.17671 0.43282,0 11.77036,-13.15787 25.19452,-29.23971 13.42416,-16.08184 25.42755,-30.28479 26.67421,-31.56211 2.79758,-2.86638 3.55578,-2.65169 15.44309,4.37273 C 247.2629,195.55691 252.10165,198 252.96252,198 254.53455,198 314,127.97415 314,126.12295 c 0,-1.13743 -1.69655,-1.70206 -8,-2.6625 -7.02204,-1.06993 -7.73212,-1.84709 -3.85927,-4.22381 6.12032,-3.75597 42.00158,-21.427661 42.49852,-20.930725 1.09532,1.095322 -14.40244,48.958475 -15.61064,48.211765 -0.44061,-0.27231 -1.8425,-3.44495 -3.11529,-7.05029 -1.2728,-3.60535 -2.86315,-7.01079 -3.53411,-7.56764 -1.12395,-0.93279 -20.27502,21.07686 -57.26342,65.81084 -4.18868,5.06582 -8.60761,9.49691 -9.81984,9.84687 -1.62493,0.4691 -4.8559,-0.96569 -12.29652,-5.46058 C 237.44858,198.74359 232.30112,196 231.56062,196 c -0.74049,0 -12.92857,13.8375 -27.08462,30.75 -14.15604,16.9125 -26.537,31.05737 -27.51323,31.43304 -1.21521,0.46764 -4.83612,-1.20244 -11.48173,-5.29571 -5.33871,-3.28832 -10.18452,-5.8195 -10.76845,-5.62486 -0.58393,0.19464 -8.30799,8.87772 -17.16457,19.29571 -9.30962,10.95092 -16.93996,19.06345 -18.08713,19.23014 -1.09134,0.15858 -2.54149,-0.26892 -3.22257,-0.95 z"
       id="path75"
       inkscape:connector-curvature="0" />
    <path
       style="fill:#023045"
       d="m 133.15161,384.11486 c -0.74162,-0.46998 -1.18547,-1.70059 -0.98633,-2.73469 0.35165,-1.8261 3.81689,-1.88748 120.48986,-2.13419 113.0289,-0.23901 120.16697,-0.15193 120.79075,1.47362 1.66603,4.3416 3.3779,4.2812 -120.88702,4.26509 -64.93238,-0.008 -118.66565,-0.39985 -119.40726,-0.86983 z M 116.35674,283.48727 c -0.31927,-0.83201 0.0323,-2.28791 0.78138,-3.23535 4.71058,-5.95832 33.84352,-39.99469 35.18398,-41.10587 1.41947,-1.17667 2.94776,-0.54157 11.6724,4.85055 5.52149,3.41247 10.66451,5.96449 11.42892,5.67116 0.76441,-0.29333 12.90277,-14.2595 26.97413,-31.03592 14.07136,-16.77642 26.06551,-30.79999 26.65366,-31.16349 0.58814,-0.36349 5.84592,2.10341 11.68395,5.48201 5.83803,3.3786 11.52184,6.00942 12.63071,5.84627 C 255.79961,198.43855 315,128.38664 315,125.86487 c 0,-1.23154 -1.38955,-1.99715 -5.04922,-2.78201 -2.77707,-0.59557 -5.70207,-1.08286 -6.5,-1.08286 -3.86884,0 0.20333,-2.58906 19.54922,-12.42928 11.55,-5.87487 21,-10.511797 21,-10.304288 0,0.20751 -0.6474,2.369948 -1.43866,4.805428 -0.79126,2.43548 -3.9578,12.41564 -7.03675,22.17814 -3.07896,9.7625 -5.96033,17.75 -6.40306,17.75 -0.44272,0 -1.37557,-1.9125 -2.073,-4.25 -1.75344,-5.8769 -3.86967,-9.75 -5.3273,-9.75 -0.67508,0 -15.77966,17.325 -33.56574,38.5 -17.78608,21.175 -32.86191,38.5 -33.50184,38.5 -0.63993,0 -5.84718,-2.72168 -11.57166,-6.04818 -5.72448,-3.3265 -11.17333,-5.914 -12.10855,-5.75 -0.93523,0.164 -13.28101,14.13568 -27.43507,31.04818 -18.33339,21.90632 -26.32239,30.75 -27.77821,30.75 -1.12395,0 -6.01934,-2.50864 -10.87864,-5.57476 -5.826,-3.67608 -9.43902,-5.36246 -10.6083,-4.95143 -0.97527,0.34283 -8.9351,9.15147 -17.68851,19.57476 -15.49779,18.45429 -18.75928,21.26604 -20.22797,17.4387 z"
       id="path73"
       inkscape:connector-curvature="0" />
  </g>
</svg>
